HIERARCHY
ROOT Hips
{
 OFFSET 0.000000 0.000000 0.000000
 CHANNELS 6 Xposition Yposition Zposition Yrotation Xrotation Zrotation
 JOINT Chest
 {
  OFFSET 0.000000 9.581000 -0.001100
  CHANNELS 3 Yrotation Xrotation Zrotation
  JOINT Chest2
  {
   OFFSET 0.000000 9.561100 0.002200
   CHANNELS 3 Yrotation Xrotation Zrotation
   JOINT Chest3
   {
    OFFSET 0.000000 9.521100 0.000000
    CHANNELS 3 Yrotation Xrotation Zrotation
    JOINT Chest4
    {
     OFFSET 0.000000 9.511400 0.000000
     CHANNELS 3 Yrotation Xrotation Zrotation
     JOINT Neck
     {
      OFFSET 0.000000 14.375100 0.000000
      CHANNELS 3 Yrotation Xrotation Zrotation
      JOINT Head
      {
       OFFSET 0.000000 8.901200 0.004600
       CHANNELS 3 Yrotation Xrotation Zrotation
       End Site
       {
        OFFSET 0.000000 16.962200 0.002400
       }
      }
     }
     JOINT RightCollar
     {
      OFFSET -2.920100 9.518800 0.000000
      CHANNELS 3 Yrotation Xrotation Zrotation
      JOINT RightShoulder
      {
       OFFSET -13.664500 0.000000 0.000000
       CHANNELS 3 Yrotation Xrotation Zrotation
       JOINT RightElbow
       {
        OFFSET 0.000000 -29.999200 0.000000
        CHANNELS 3 Yrotation Xrotation Zrotation
        JOINT RightWrist
        {
         OFFSET 0.000000 -24.253600 0.000000
         CHANNELS 3 Yrotation Xrotation Zrotation
         End Site
         {
          OFFSET 0.000000 -17.918900 0.000000
         }
        }
       }
      }
     }
     JOINT LeftCollar
     {
      OFFSET 2.920100 9.518800 0.000000
      CHANNELS 3 Yrotation Xrotation Zrotation
      JOINT LeftShoulder
      {
       OFFSET 13.664500 0.000000 0.000000
       CHANNELS 3 Yrotation Xrotation Zrotation
       JOINT LeftElbow
       {
        OFFSET 0.000000 -29.999200 0.000000
        CHANNELS 3 Yrotation Xrotation Zrotation
        JOINT LeftWrist
        {
         OFFSET 0.000000 -24.253600 0.000000
         CHANNELS 3 Yrotation Xrotation Zrotation
         End Site
         {
          OFFSET 0.000000 -17.918900 0.000000
         }
        }
       }
      }
     }
    }
   }
  }
 }
 JOINT RightHip
 {
  OFFSET -7.797300 0.005300 0.000500
  CHANNELS 3 Yrotation Xrotation Zrotation
  JOINT RightKnee
  {
   OFFSET 0.000000 -40.663400 -0.000500
   CHANNELS 3 Yrotation Xrotation Zrotation
   JOINT RightAnkle
   {
    OFFSET 0.000000 -39.523700 -0.000900
    CHANNELS 3 Yrotation Xrotation Zrotation
    JOINT RightToe
    {
     OFFSET 0.000000 -6.418000 14.485300
     CHANNELS 3 Yrotation Xrotation Zrotation
     End Site
     {
      OFFSET 0.000000 -1.465200 6.326400
     }
    }
   }
  }
 }
 JOINT LeftHip
 {
  OFFSET 7.797300 0.005300 0.000500
  CHANNELS 3 Yrotation Xrotation Zrotation
  JOINT LeftKnee
  {
   OFFSET 0.000000 -40.663400 -0.000500
   CHANNELS 3 Yrotation Xrotation Zrotation
   JOINT LeftAnkle
   {
    OFFSET 0.000000 -39.523700 -0.000900
    CHANNELS 3 Yrotation Xrotation Zrotation
    JOINT LeftToe
    {
     OFFSET 0.000000 -6.418000 14.485300
     CHANNELS 3 Yrotation Xrotation Zrotation
     End Site
     {
      OFFSET 0.000000 -1.465200 6.326400
     }
    }
   }
  }
 }
}
MOTION
Frames: 9
Frame Time: 0.008333
-14.947795 126.906402 20.778155 -172.349335 -47.228328 -2.251025 -1.057280 24.013899 0.320866 -0.165175 3.628070 0.075762 -0.243846 5.856178 0.126242 -0.905058 20.039871 0.288548 -1.624081 10.844719 -2.515215 -1.177660 -14.275382 -2.286131 2.199608 0.925859 5.888435 -27.271436 -28.309957 -16.611703 -120.010003 -60.119850 135.008487 -10.477956 -11.643865 -3.723598 -9.306621 -2.873140 -1.525759 24.827674 -27.956577 15.882345 93.688134 -48.985571 -111.159132 14.985205 -25.403804 -9.054531 -4.032474 -25.190962 -1.798944 -3.754118 77.723334 -2.228436 10.506073 -9.233453 0.439554 0.000730 -0.000648 0.000323 7.430499 4.436099 2.459851 128.854492 65.651632 148.842433 4.302662 12.260773 4.751329 0.001125 0.001050 0.000499
-14.946435 126.906362 20.778184 -172.355876 -47.228451 -2.237760 -1.041057 24.025281 0.326915 -0.163107 3.631024 0.076445 -0.248045 5.856976 0.124228 -0.861757 20.071758 0.303898 -1.790180 10.855725 -2.573395 -1.314464 -14.243716 -2.316746 2.149297 0.882202 5.890175 -27.342489 -28.293697 -16.659377 -120.359718 -60.046581 135.413038 -10.479832 -11.640850 -3.708122 -9.347475 -2.905938 -1.505090 24.938178 -28.001047 15.918511 94.103622 -49.059370 -111.542650 14.945630 -25.393605 -9.040486 -4.028119 -25.192402 -1.802050 -3.752345 77.717286 -2.231936 10.506626 -9.222608 0.436198 0.001081 -0.001126 0.000479 7.432778 4.433791 2.450676 128.846164 65.657105 148.838975 4.300323 12.273442 4.742328 0.002305 -0.001676 0.001021
-14.946555 126.906153 20.778325 -172.369957 -47.225949 -2.210742 -1.028484 24.034741 0.321423 -0.154320 3.641578 0.081659 -0.264026 5.839025 0.113907 -0.830066 20.099481 0.315919 -1.936636 10.887773 -2.621954 -1.451635 -14.203095 -2.337745 2.129392 0.863427 5.901748 -27.423313 -28.291197 -16.706604 -120.667304 -59.966360 135.780841 -10.479980 -11.638120 -3.687241 -9.376656 -2.932230 -1.495607 25.043911 -28.035280 15.966356 94.505594 -49.132820 -111.910929 14.910305 -25.383905 -9.027239 -4.016634 -25.202288 -1.811001 -3.772759 77.718174 -2.262014 10.507322 -9.207175 0.425590 0.001770 -0.000858 0.000784 7.436991 4.427573 2.432124 128.848181 65.655696 148.836369 4.304645 12.280676 4.742166 0.002978 -0.003074 0.001319
-14.945552 126.906274 20.777908 -172.374402 -47.224241 -2.198532 -1.006511 24.052245 0.339776 -0.169754 3.629061 0.067920 -0.254726 5.851061 0.119154 -0.823012 20.101080 0.319970 -2.071047 10.933619 -2.661292 -1.585948 -14.155706 -2.349329 2.121409 0.883094 5.925246 -27.510741 -28.317830 -16.747176 -120.930185 -59.879753 136.114293 -10.479672 -11.632932 -3.660134 -9.396380 -2.946467 -1.490389 25.145031 -28.066780 16.012518 94.886914 -49.202117 -112.262601 14.882053 -25.378469 -9.019025 -4.023754 -25.210678 -1.800865 -3.808836 77.720758 -2.314963 10.478837 -9.194100 0.415994 0.000475 -0.001836 0.000210 7.435843 4.423574 2.427699 128.848213 65.653841 148.828478 4.314770 12.283499 4.734542 0.003658 -0.002296 0.001621
-14.944856 126.906291 20.777490 -172.379803 -47.220497 -2.184413 -1.002386 24.052493 0.335636 -0.162774 3.635770 0.072248 -0.240730 5.865876 0.132065 -0.834379 20.089545 0.314666 -2.196370 10.984110 -2.692557 -1.712417 -14.103515 -2.354298 2.106823 0.890790 5.932407 -27.601140 -28.322248 -16.774260 -121.148447 -59.790166 136.414332 -10.479364 -11.624531 -3.625442 -9.406518 -2.949715 -1.481815 25.241373 -28.100024 16.047458 95.243288 -49.260928 -112.598083 14.865810 -25.374404 -9.014414 -4.021859 -25.216859 -1.808492 -3.768009 77.718432 -2.280212 10.475829 -9.188132 0.413548 0.001370 -0.002036 0.000607 7.438923 4.421119 2.420734 128.841161 65.649960 148.813539 4.317588 12.278248 4.741813 0.000293 -0.000423 0.000130
-14.944873 126.906082 20.777255 -172.382777 -47.213961 -2.168348 -1.002008 24.050080 0.327875 -0.157159 3.641567 0.078040 -0.242384 5.863201 0.135460 -0.830948 20.090024 0.317397 -2.310266 11.037350 -2.717518 -1.828058 -14.048401 -2.355066 2.093844 0.907316 5.939364 -27.693985 -28.332595 -16.794820 -121.327557 -59.702469 136.681555 -10.480268 -11.615049 -3.587515 -9.416081 -2.950407 -1.481748 25.336188 -28.134027 16.085972 95.568101 -49.305886 -112.915257 14.860523 -25.368896 -9.009863 -4.015877 -25.226464 -1.816018 -3.657320 77.721083 -2.173572 10.422545 -9.186494 0.408089 -0.000472 -0.001430 -0.000209 7.439967 4.416805 2.407907 128.836496 65.644405 148.801478 4.321714 12.271026 4.747459 -0.002452 0.001581 -0.001086
-14.943908 126.906395 20.776407 -172.384543 -47.210667 -2.160192 -0.999628 24.052993 0.335963 -0.156692 3.641728 0.078504 -0.241433 5.861078 0.135043 -0.829243 20.088881 0.320336 -2.410266 11.090370 -2.735693 -1.930436 -13.993378 -2.351622 2.076899 0.918936 5.941983 -27.779255 -28.334019 -16.811933 -121.474849 -59.619255 136.919035 -10.485550 -11.607141 -3.553290 -9.424654 -2.956026 -1.490750 25.427903 -28.164913 16.129887 95.854867 -49.337383 -113.208812 14.858783 -25.363659 -9.006377 -4.018631 -25.231166 -1.815336 -3.650755 77.721598 -2.173990 10.409533 -9.185093 0.404387 -0.001115 -0.001256 -0.000494 7.440980 4.418664 2.404670 128.822041 65.644207 148.783043 4.322669 12.265002 4.757177 -0.002826 0.001754 -0.001252
-14.942830 126.906953 20.775293 -172.387692 -47.209006 -2.152656 -0.991264 24.057636 0.348599 -0.156448 3.640851 0.078880 -0.247637 5.856970 0.130401 -0.828870 20.087195 0.323365 -2.494252 11.141951 -2.746620 -2.017393 -13.939825 -2.344002 2.060689 0.930058 5.947551 -27.852942 -28.331827 -16.829478 -121.599590 -59.539177 137.130625 -10.492929 -11.604014 -3.523773 -9.426283 -2.952660 -1.494239 25.522347 -28.200679 16.160962 96.103000 -49.351534 -113.475899 14.856496 -25.358978 -9.007427 -4.021532 -25.234401 -1.809799 -3.660488 77.722660 -2.190548 10.387981 -9.183293 0.404044 -0.001925 -0.001332 -0.000853 7.438614 4.422541 2.413421 128.823839 65.653965 148.776142 4.322334 12.266948 4.746636 -0.000637 0.002311 -0.000282
-14.941245 126.906971 20.774651 -172.388796 -47.202441 -2.150054 -0.991295 24.054380 0.353834 -0.156426 3.640187 0.079612 -0.246951 5.854055 0.128487 -0.828465 20.084363 0.326292 -2.562433 11.192641 -2.750976 -2.088897 -13.887192 -2.332874 2.045753 0.940239 5.955775 -27.916557 -28.323732 -16.846655 -121.639572 -59.471770 137.243454 -10.496123 -11.604171 -3.509782 -9.426905 -2.948635 -1.499560 25.615986 -28.237389 16.195320 96.317915 -49.345628 -113.720569 14.858460 -25.352657 -9.014541 -4.025349 -25.242774 -1.803858 -3.660025 77.724330 -2.194213 10.380512 -9.180232 0.401553 -0.001812 -0.001741 -0.000803 7.434516 4.421348 2.418549 128.814495 65.655715 148.763126 4.311441 12.257866 4.749787 0.001891 -0.000600 0.000838
